<svg width="432" height="135" viewBox="0 0 432 135" fill="none" xmlns="http://www.w3.org/2000/svg">
<path d="M19.833 0H36L28.167 14.8753H12L19.833 0Z" fill="black"/>
<path d="M19.833 120.125H36L28.167 135H12L19.833 120.125Z" fill="black"/>
<path d="M55.833 0H72L64.167 14.8753H48L55.833 0Z" fill="black"/>
<path d="M55.833 120.125H72L64.167 135H48L55.833 120.125Z" fill="black"/>
<path d="M91.833 0H108L100.167 14.8753H84L91.833 0Z" fill="black"/>
<path d="M91.833 120.125H108L100.167 135H84L91.833 120.125Z" fill="black"/>
<path d="M127.833 0H144L136.167 14.8753H120L127.833 0Z" fill="black"/>
<path d="M127.833 120.125H144L136.167 135H120L127.833 120.125Z" fill="black"/>
<path d="M163.833 0H180L172.167 14.8753H156L163.833 0Z" fill="black"/>
<path d="M163.833 120.125H180L172.167 135H156L163.833 120.125Z" fill="black"/>
<path d="M199.833 0H216L208.167 14.8753H192L199.833 0Z" fill="black"/>
<path d="M199.833 120.125H216L208.167 135H192L199.833 120.125Z" fill="black"/>
<path d="M235.833 0H252L244.167 14.8753H228L235.833 0Z" fill="black"/>
<path d="M235.833 120.125H252L244.167 135H228L235.833 120.125Z" fill="black"/>
<path d="M271.833 0H288L280.167 14.8753H264L271.833 0Z" fill="black"/>
<path d="M271.833 120.125H288L280.167 135H264L271.833 120.125Z" fill="black"/>
<path d="M307.833 0H324L316.167 14.8753H300L307.833 0Z" fill="black"/>
<path d="M307.833 120.125H324L316.167 135H300L307.833 120.125Z" fill="black"/>
<path d="M343.833 0H360L352.167 14.8753H336L343.833 0Z" fill="black"/>
<path d="M343.833 120.125H360L352.167 135H336L343.833 120.125Z" fill="black"/>
<path d="M379.833 0H396L388.167 14.8753H372L379.833 0Z" fill="black"/>
<path d="M379.833 120.125H396L388.167 135H372L379.833 120.125Z" fill="black"/>
<path d="M415.833 0H432L424.167 14.8753H408L415.833 0Z" fill="black"/>
<path d="M415.833 120.125H432L424.167 135H408L415.833 120.125Z" fill="black"/>
</svg>
